<mxfile host="app.diagrams.net" modified="2023-10-26T09:21:39.105Z" agent="Mozilla/5.0 (X11; Linux x86_64; rv:109.0) Gecko/20100101 Firefox/118.0" etag="0VdgrJNUHNMzJb8ksA1b" version="22.0.8" type="github">
  <diagram name="Page-1" id="8hc3-o52rJIawz3ARHav">
    <mxGraphModel dx="1500" dy="2093" grid="1" gridSize="10" guides="1" tooltips="1" connect="1" arrows="1" fold="1" page="1" pageScale="1" pageWidth="827" pageHeight="1169" math="0" shadow="0">
      <root>
        <mxCell id="0" />
        <mxCell id="1" parent="0" />
        <mxCell id="C4GAyIFNZl6f3epqZ-uw-8" style="edgeStyle=orthogonalEdgeStyle;rounded=0;sketch=1;hachureGap=4;jiggle=2;curveFitting=1;orthogonalLoop=1;jettySize=auto;html=1;fontFamily=Architects Daughter;fontSource=https%3A%2F%2Ffonts.googleapis.com%2Fcss%3Ffamily%3DArchitects%2BDaughter;fontSize=16;" edge="1" parent="1" source="C4GAyIFNZl6f3epqZ-uw-2" target="C4GAyIFNZl6f3epqZ-uw-3">
          <mxGeometry relative="1" as="geometry" />
        </mxCell>
        <mxCell id="C4GAyIFNZl6f3epqZ-uw-2" value="Start" style="strokeWidth=2;html=1;shape=mxgraph.flowchart.start_1;whiteSpace=wrap;sketch=1;hachureGap=4;jiggle=2;curveFitting=1;fontFamily=Architects Daughter;fontSource=https%3A%2F%2Ffonts.googleapis.com%2Fcss%3Ffamily%3DArchitects%2BDaughter;fontSize=20;" vertex="1" parent="1">
          <mxGeometry x="484" width="100" height="60" as="geometry" />
        </mxCell>
        <mxCell id="C4GAyIFNZl6f3epqZ-uw-3" value="input(n)" style="shape=parallelogram;html=1;strokeWidth=2;perimeter=parallelogramPerimeter;whiteSpace=wrap;rounded=1;arcSize=12;size=0.23;sketch=1;hachureGap=4;jiggle=2;curveFitting=1;fontFamily=Architects Daughter;fontSource=https%3A%2F%2Ffonts.googleapis.com%2Fcss%3Ffamily%3DArchitects%2BDaughter;fontSize=20;" vertex="1" parent="1">
          <mxGeometry x="437" y="130" width="194" height="70" as="geometry" />
        </mxCell>
        <mxCell id="C4GAyIFNZl6f3epqZ-uw-10" style="edgeStyle=orthogonalEdgeStyle;rounded=0;sketch=1;hachureGap=4;jiggle=2;curveFitting=1;orthogonalLoop=1;jettySize=auto;html=1;entryX=0.5;entryY=0;entryDx=0;entryDy=0;fontFamily=Architects Daughter;fontSource=https%3A%2F%2Ffonts.googleapis.com%2Fcss%3Ffamily%3DArchitects%2BDaughter;fontSize=16;" edge="1" parent="1" source="C4GAyIFNZl6f3epqZ-uw-6" target="C4GAyIFNZl6f3epqZ-uw-7">
          <mxGeometry relative="1" as="geometry" />
        </mxCell>
        <mxCell id="C4GAyIFNZl6f3epqZ-uw-12" value="No" style="edgeLabel;html=1;align=center;verticalAlign=middle;resizable=0;points=[];fontSize=20;fontFamily=Architects Daughter;" vertex="1" connectable="0" parent="C4GAyIFNZl6f3epqZ-uw-10">
          <mxGeometry x="-0.2295" y="-2" relative="1" as="geometry">
            <mxPoint as="offset" />
          </mxGeometry>
        </mxCell>
        <mxCell id="C4GAyIFNZl6f3epqZ-uw-14" style="edgeStyle=orthogonalEdgeStyle;rounded=0;sketch=1;hachureGap=4;jiggle=2;curveFitting=1;orthogonalLoop=1;jettySize=auto;html=1;entryX=0.5;entryY=0;entryDx=0;entryDy=0;fontFamily=Architects Daughter;fontSource=https%3A%2F%2Ffonts.googleapis.com%2Fcss%3Ffamily%3DArchitects%2BDaughter;fontSize=16;" edge="1" parent="1" source="C4GAyIFNZl6f3epqZ-uw-6" target="C4GAyIFNZl6f3epqZ-uw-13">
          <mxGeometry relative="1" as="geometry" />
        </mxCell>
        <mxCell id="C4GAyIFNZl6f3epqZ-uw-16" value="Yes" style="edgeLabel;html=1;align=center;verticalAlign=middle;resizable=0;points=[];fontSize=20;fontFamily=Architects Daughter;" vertex="1" connectable="0" parent="C4GAyIFNZl6f3epqZ-uw-14">
          <mxGeometry x="-0.4558" y="2" relative="1" as="geometry">
            <mxPoint as="offset" />
          </mxGeometry>
        </mxCell>
        <mxCell id="C4GAyIFNZl6f3epqZ-uw-6" value="n = 10" style="strokeWidth=2;html=1;shape=mxgraph.flowchart.decision;whiteSpace=wrap;sketch=1;hachureGap=4;jiggle=2;curveFitting=1;fontFamily=Architects Daughter;fontSource=https%3A%2F%2Ffonts.googleapis.com%2Fcss%3Ffamily%3DArchitects%2BDaughter;fontSize=20;" vertex="1" parent="1">
          <mxGeometry x="444" y="570" width="180" height="110" as="geometry" />
        </mxCell>
        <mxCell id="C4GAyIFNZl6f3epqZ-uw-7" value="return fib(n - 1) + fib(n - 2)" style="shape=parallelogram;html=1;strokeWidth=2;perimeter=parallelogramPerimeter;whiteSpace=wrap;rounded=1;arcSize=12;size=0.23;sketch=1;hachureGap=4;jiggle=2;curveFitting=1;fontFamily=Architects Daughter;fontSource=https%3A%2F%2Ffonts.googleapis.com%2Fcss%3Ffamily%3DArchitects%2BDaughter;fontSize=20;" vertex="1" parent="1">
          <mxGeometry x="660" y="765" width="380" height="70" as="geometry" />
        </mxCell>
        <mxCell id="C4GAyIFNZl6f3epqZ-uw-13" value="return 55" style="shape=parallelogram;perimeter=parallelogramPerimeter;whiteSpace=wrap;html=1;fixedSize=1;sketch=1;hachureGap=4;jiggle=2;curveFitting=1;fontFamily=Architects Daughter;fontSource=https%3A%2F%2Ffonts.googleapis.com%2Fcss%3Ffamily%3DArchitects%2BDaughter;fontSize=20;" vertex="1" parent="1">
          <mxGeometry x="230" y="765" width="140" height="60" as="geometry" />
        </mxCell>
        <mxCell id="C4GAyIFNZl6f3epqZ-uw-15" value="&lt;font style=&quot;font-size: 48px;&quot;&gt;fib(n)&lt;/font&gt;" style="text;html=1;strokeColor=none;fillColor=none;align=center;verticalAlign=middle;whiteSpace=wrap;rounded=0;fontSize=20;fontFamily=Architects Daughter;" vertex="1" parent="1">
          <mxGeometry x="504" y="-100" width="60" height="30" as="geometry" />
        </mxCell>
        <mxCell id="C4GAyIFNZl6f3epqZ-uw-20" style="edgeStyle=orthogonalEdgeStyle;rounded=0;sketch=1;hachureGap=4;jiggle=2;curveFitting=1;orthogonalLoop=1;jettySize=auto;html=1;entryX=1;entryY=0.5;entryDx=0;entryDy=0;fontFamily=Architects Daughter;fontSource=https%3A%2F%2Ffonts.googleapis.com%2Fcss%3Ffamily%3DArchitects%2BDaughter;fontSize=16;" edge="1" parent="1" source="C4GAyIFNZl6f3epqZ-uw-18" target="C4GAyIFNZl6f3epqZ-uw-19">
          <mxGeometry relative="1" as="geometry" />
        </mxCell>
        <mxCell id="C4GAyIFNZl6f3epqZ-uw-21" value="Yes" style="edgeLabel;html=1;align=center;verticalAlign=middle;resizable=0;points=[];fontSize=20;fontFamily=Architects Daughter;" vertex="1" connectable="0" parent="C4GAyIFNZl6f3epqZ-uw-20">
          <mxGeometry x="-0.3571" y="5" relative="1" as="geometry">
            <mxPoint as="offset" />
          </mxGeometry>
        </mxCell>
        <mxCell id="C4GAyIFNZl6f3epqZ-uw-18" value="n = 9" style="strokeWidth=2;html=1;shape=mxgraph.flowchart.decision;whiteSpace=wrap;sketch=1;hachureGap=4;jiggle=2;curveFitting=1;fontFamily=Architects Daughter;fontSource=https%3A%2F%2Ffonts.googleapis.com%2Fcss%3Ffamily%3DArchitects%2BDaughter;fontSize=20;" vertex="1" parent="1">
          <mxGeometry x="444" y="400" width="180" height="110" as="geometry" />
        </mxCell>
        <mxCell id="C4GAyIFNZl6f3epqZ-uw-19" value="return 34" style="shape=parallelogram;perimeter=parallelogramPerimeter;whiteSpace=wrap;html=1;fixedSize=1;sketch=1;hachureGap=4;jiggle=2;curveFitting=1;fontFamily=Architects Daughter;fontSource=https%3A%2F%2Ffonts.googleapis.com%2Fcss%3Ffamily%3DArchitects%2BDaughter;fontSize=20;" vertex="1" parent="1">
          <mxGeometry x="180" y="425" width="140" height="60" as="geometry" />
        </mxCell>
        <mxCell id="C4GAyIFNZl6f3epqZ-uw-22" style="edgeStyle=orthogonalEdgeStyle;rounded=0;sketch=1;hachureGap=4;jiggle=2;curveFitting=1;orthogonalLoop=1;jettySize=auto;html=1;entryX=0.5;entryY=0;entryDx=0;entryDy=0;entryPerimeter=0;fontFamily=Architects Daughter;fontSource=https%3A%2F%2Ffonts.googleapis.com%2Fcss%3Ffamily%3DArchitects%2BDaughter;fontSize=16;" edge="1" parent="1" source="C4GAyIFNZl6f3epqZ-uw-18" target="C4GAyIFNZl6f3epqZ-uw-6">
          <mxGeometry relative="1" as="geometry" />
        </mxCell>
        <mxCell id="C4GAyIFNZl6f3epqZ-uw-23" value="No" style="edgeLabel;html=1;align=center;verticalAlign=middle;resizable=0;points=[];fontSize=20;fontFamily=Architects Daughter;" vertex="1" connectable="0" parent="C4GAyIFNZl6f3epqZ-uw-22">
          <mxGeometry x="-0.0667" y="1" relative="1" as="geometry">
            <mxPoint as="offset" />
          </mxGeometry>
        </mxCell>
        <mxCell id="C4GAyIFNZl6f3epqZ-uw-29" style="edgeStyle=orthogonalEdgeStyle;rounded=0;sketch=1;hachureGap=4;jiggle=2;curveFitting=1;orthogonalLoop=1;jettySize=auto;html=1;entryX=1;entryY=0.5;entryDx=0;entryDy=0;fontFamily=Architects Daughter;fontSource=https%3A%2F%2Ffonts.googleapis.com%2Fcss%3Ffamily%3DArchitects%2BDaughter;fontSize=16;" edge="1" parent="1" source="C4GAyIFNZl6f3epqZ-uw-25" target="C4GAyIFNZl6f3epqZ-uw-28">
          <mxGeometry relative="1" as="geometry" />
        </mxCell>
        <mxCell id="C4GAyIFNZl6f3epqZ-uw-32" value="Yes" style="edgeLabel;html=1;align=center;verticalAlign=middle;resizable=0;points=[];fontSize=20;fontFamily=Architects Daughter;" vertex="1" connectable="0" parent="C4GAyIFNZl6f3epqZ-uw-29">
          <mxGeometry x="-0.3704" y="-2" relative="1" as="geometry">
            <mxPoint as="offset" />
          </mxGeometry>
        </mxCell>
        <mxCell id="C4GAyIFNZl6f3epqZ-uw-25" value="n &amp;lt;= 10" style="strokeWidth=2;html=1;shape=mxgraph.flowchart.decision;whiteSpace=wrap;sketch=1;hachureGap=4;jiggle=2;curveFitting=1;fontFamily=Architects Daughter;fontSource=https%3A%2F%2Ffonts.googleapis.com%2Fcss%3Ffamily%3DArchitects%2BDaughter;fontSize=20;" vertex="1" parent="1">
          <mxGeometry x="444" y="250" width="180" height="110" as="geometry" />
        </mxCell>
        <mxCell id="C4GAyIFNZl6f3epqZ-uw-26" style="edgeStyle=orthogonalEdgeStyle;rounded=0;sketch=1;hachureGap=4;jiggle=2;curveFitting=1;orthogonalLoop=1;jettySize=auto;html=1;entryX=0.5;entryY=0;entryDx=0;entryDy=0;entryPerimeter=0;fontFamily=Architects Daughter;fontSource=https%3A%2F%2Ffonts.googleapis.com%2Fcss%3Ffamily%3DArchitects%2BDaughter;fontSize=16;" edge="1" parent="1" source="C4GAyIFNZl6f3epqZ-uw-3" target="C4GAyIFNZl6f3epqZ-uw-25">
          <mxGeometry relative="1" as="geometry" />
        </mxCell>
        <mxCell id="C4GAyIFNZl6f3epqZ-uw-28" value="&lt;div&gt;hanya untuk n &amp;gt; 10 !!!&lt;/div&gt;&lt;div&gt;return&lt;br&gt;&lt;/div&gt;" style="shape=parallelogram;perimeter=parallelogramPerimeter;whiteSpace=wrap;html=1;fixedSize=1;sketch=1;hachureGap=4;jiggle=2;curveFitting=1;fontFamily=Architects Daughter;fontSource=https%3A%2F%2Ffonts.googleapis.com%2Fcss%3Ffamily%3DArchitects%2BDaughter;fontSize=20;" vertex="1" parent="1">
          <mxGeometry x="120" y="265" width="240" height="80" as="geometry" />
        </mxCell>
        <mxCell id="C4GAyIFNZl6f3epqZ-uw-31" style="edgeStyle=orthogonalEdgeStyle;rounded=0;sketch=1;hachureGap=4;jiggle=2;curveFitting=1;orthogonalLoop=1;jettySize=auto;html=1;entryX=0.5;entryY=0;entryDx=0;entryDy=0;entryPerimeter=0;fontFamily=Architects Daughter;fontSource=https%3A%2F%2Ffonts.googleapis.com%2Fcss%3Ffamily%3DArchitects%2BDaughter;fontSize=16;" edge="1" parent="1" source="C4GAyIFNZl6f3epqZ-uw-25" target="C4GAyIFNZl6f3epqZ-uw-18">
          <mxGeometry relative="1" as="geometry" />
        </mxCell>
        <mxCell id="C4GAyIFNZl6f3epqZ-uw-33" value="No" style="edgeLabel;html=1;align=center;verticalAlign=middle;resizable=0;points=[];fontSize=20;fontFamily=Architects Daughter;" vertex="1" connectable="0" parent="C4GAyIFNZl6f3epqZ-uw-31">
          <mxGeometry x="0.24" y="1" relative="1" as="geometry">
            <mxPoint as="offset" />
          </mxGeometry>
        </mxCell>
      </root>
    </mxGraphModel>
  </diagram>
</mxfile>
